# xmcd CD database file
#
# Track frame offsets:
#	150
#	7320
#	21402
#	34010
#	45644
#	55161
#	62388
#	75557
#	86525
#	98093
#	107194
#	114231
#	121535
#	134027
#	143899
#	151022
#	162973
#	172177
#	184488
#	195587
#	208310
#	216527
#	227023
#	235442
#	240360
#	249324
#	263164
#
# Disc length: 3626 seconds
#
# Revision: 0
# Processed by: cddbd v1.5.1PL2 Copyright (c) Steve Scherf et al.
# Submitted via: CDex 1.51
#
DISCID=790e281b
DTITLE=Brian K Kelly - Archives No 2
DYEAR=2000
DGENRE=Country
TTITLE0=Send Back My Heart
TTITLE1=Publican's Mate
TTITLE2=Reminders Of the Past
TTITLE3=Whingers
TTITLE4=Life By Chance
TTITLE5=Wilson River Shore
TTITLE6=Wheel The Breakers
TTITLE7=Will The Angels Speak To Me
TTITLE8=Somebody's Sweetheart
TTITLE9=Lonely Road To Nowhere
TTITLE10=I Want A Little Home
TTITLE11=Were You There
TTITLE12=Srunkards Release
TTITLE13=Mansion By The Shore
TTITLE14=Older, But Only In Years
TTITLE15=The Preacher And The Publican
TTITLE16=Saucers Dinky Di
TTITLE17=Singing My Hillbilly Songs
TTITLE18=Aboard Old Superscrew
TTITLE19=The Nulla Yowie
TTITLE20=Don't Need You Around
TTITLE21=Country Rover
TTITLE22=South Bound Train
TTITLE23=Alcohol Blues
TTITLE24=Roads End
TTITLE25=City Livin'
TTITLE26=Rodeo Dance
EXTD=YEAR: 2000
EXTT0=
EXTT1=
EXTT2=
EXTT3=
EXTT4=
EXTT5=
EXTT6=
EXTT7=
EXTT8=
EXTT9=
EXTT10=
EXTT11=
EXTT12=
EXTT13=
EXTT14=
EXTT15=
EXTT16=
EXTT17=
EXTT18=
EXTT19=
EXTT20=
EXTT21=
EXTT22=
EXTT23=
EXTT24=
EXTT25=
EXTT26=
PLAYORDER=
